<?xml version="1.0" encoding="utf-8"?>
<!-- Generator: Adobe Illustrator 22.0.1, SVG Export Plug-In . SVG Version: 6.00 Build 0)  -->
<svg version="1.1" id="Layer_1" xmlns="http://www.w3.org/2000/svg" xmlns:xlink="http://www.w3.org/1999/xlink" x="0px" y="0px"
	 viewBox="0 0 1366 768" style="enable-background:new 0 0 1366 768;" xml:space="preserve">
<style type="text/css">
	.st0{fill:#B3F2EF;}
</style>
<g>
	<g>
		<path class="st0" d="M213.4,126.9c0,0,3-68-22.5-87.5s-52.5-28.5-73.5-24s-59,27-65,45.5s-9,61.5-8,63.5s-10.5-5.5-11,8
			s3,59,19,56.5c0,0,11.5,83.5,69,87.5s85-62,87-65.5s3-22,3-23.5s4.5-4,5.5-13.5S226.4,125.9,213.4,126.9z M166.9,246
			c-3,6.5-23,11.5-26.5,12s-6-5.5-14-7s-6.5,3.5-18.5,4.5c-12,1-11.5-34-11.5-34s27.5,12.5,35,13s35.5-15,35.5-15
			S169.9,239.5,166.9,246z M140.8,220.5c-12.5-1.5-32.5-6.1-36.5-8.8c-4-2.7-3-5.7-3-5.7s17.5-5,23.5-2.5s17,2,19.5,2.5s26,3,26,3
			S153.3,222,140.8,220.5z M209.4,186.5c0,12-33,40.5-35.5,43s0-24.5,0-24.5s-3-9-5.5-12.2c-2.5-3.2-15.5-4.8-20-6.8
			s-6.5,4-13.5,6.8c-7,2.8-12-8.8-18-9.3s-21,23-21,23s0.5,10.5-6,18s-33.5-44.2-33.5-44.2l-2.5-14.8v-44.7c0,0,3-29.3,8-53.3
			s55-32,55-32S129.4,46,140.4,45s23.5-9.5,23.5-9.5c29.5,1,42,45,45.5,55S209.4,174.5,209.4,186.5z"/>
		<path class="st0" d="M64.1,127.7c-1,0.3,0,9.3,0,9.3h3.7v6.7h4.7c0,0-2.3-15.5,17-15.9c19.3-0.4,34.3,5.3,36.3,10.3
			s2.3,7.3,2.3,7.3h3.3v-4.8c0,0,7.3-8.8,16.7,0c0,0-0.7,5.8,0,4.8c0.7-1,2.7-1.3,2.7-1.3s-0.7-8,12.7-12s33-2.7,40,2
			c0,0,3,9.6,1.7,11.4h3v-4.9h6.7v-7.2c0,0-16-5.5-26-5.6c-10-0.1-33.3,1-37,6.9c0,0-18.7-4-22.3-0.3c0,0-30.7-15.2-54-6.6
			L64.1,127.7z"/>
	</g>
	<path class="st0" d="M141.2,185c1.7-1.8,8.7-5.8,10-4.7C152.5,181.5,141.2,185,141.2,185z"/>
	<path class="st0" d="M121.7,179.3c-1.3,2,8.8,4,8.8,4S123,177.3,121.7,179.3"/>
	<path class="st0" d="M84.5,126c1.2-0.2,27.5-12.8,32.8-5.2s-9,7.5-9,7.5L84.5,126z"/>
	<path class="st0" d="M179,129c-2.5-1-20.5-1.1-20.5-3.7s10-6.8,20.5-4.9s23.8,9.9,23.8,9.9L179,129z"/>
</g>
</svg>
