<svg id="Layer_1" data-name="Layer 1" xmlns="http://www.w3.org/2000/svg" viewBox="0 0 124.15 179"><defs><style>.cls-1{fill:#b3f2ef;}</style></defs><title>Untitled-3</title><path class="cls-1" d="M93.25,131c-.48-.32,1.72-2.26,2.9-2a5.32,5.32,0,0,1,2.36,1.5S94.22,131.64,93.25,131Z" transform="translate(-20.75 -16)"/><path class="cls-1" d="M78.67,130.06c.64,0,2.57-1.85,3.86-.57s1.39,1.78,0,1.7A16.49,16.49,0,0,1,78.67,130.06Z" transform="translate(-20.75 -16)"/><path class="cls-1" d="M144.45,96.67c-1.5-3-5.58-6-3.86-7.72s4.07-7.29,1.93-8.79-2.36-18.88-.86-22.74-3.65-5.15-3.43-8.37-5.15-9.86-5.15-9.86-1.5-8.58-11.37-8.58c0,0-1.07-5.37-7.72-5.15,0,0-5.15-2.15-6.22-1.5s-4.93-3-5.36-1.93-6.22-.43-6.22-1.51-.43-1.07-4.72-1.5-5-3.79-14.3-2.86c0,0-16.88,4.29-17.17,5.44S50.28,20.17,50.28,23c0,0,5.72-.58,5.72,0S34.26,34.18,33.41,40.19,30,48.48,27.69,49.63s-1.43,2.86-1.43,4-3.44,2.57-3.72,4.86,1.14,15.45,2.29,18.88S23.11,89.1,24.54,91.1s0,6.58,0,6.58-3.15,1.43-3.72,4.29,2.29,10,2.29,10,1.14,9.15,4,10.58S30.26,133.14,38.55,134c0,0,3.58,20.59,8.3,24.45S64.65,193,88.46,194.92s38-31.75,38-31.75,7.72-17.37,7.72-20.59V131.85s8.37-.42,9-18.66C143.16,113.19,146,99.68,144.45,96.67Zm-36.25,75.8c-.57,4-8.3,8.86-9.44,8.71s-4-3.28-4-3.28H81.6s-5.44,6.29-7.44,1.43-9.72-14.21-9.72-14.21L65.87,151s15.44,10.87,24.6,11.44,18-11.44,18-11.44l3.44,10S108.77,168.46,108.2,172.47ZM68.44,147.58s17.45-2.28,18.59,0a35,35,0,0,1,7.44-1c2.57.16,12.58,0,12.58,0s-6,9-14.58,9S69.59,151,68.44,147.58Zm65.5-27.45c0,1.14-1.72,16.59-1.72,19.45s-13.15,26-14,25.53-6.87-6.66-5.15-13.23.29-11.45-3.15-12.59-12.58-2.86-12.58-2.86-7.15,1.14-10.58,1.43-6.58-3.43-6.58-3.43-17.16,6-18,6.86,0,8.87,0,9.73-1.72,12.3-3.43,14-18.59-24.6-19.42-31.75-3.12-18.87-3.12-18.87-3.2-25.17,1-28.6,1.26-12-.46-13.45,1.43-9.44,1.43-9.44c1.32-4,11.73-10.29,15.16-10.29S66.15,48.05,69,46.05s16.88-1.14,20-.57,6.3-1.43,13.73-3.15,14,8.3,20.88,10.58,5.15,16.31,4.58,18.31,0,6.29,0,6.29c4.86,1.72,5.43,23.17,5.72,26.31S133.94,119,133.94,120.13Z" transform="translate(-20.75 -16)"/><path class="cls-1" d="M82.17,165.12c-1.1,2.56,5.15,10.78,8.3,8.78s3.43-8.78,3.43-8.78S83.6,161.78,82.17,165.12Z" transform="translate(-20.75 -16)"/><path class="cls-1" d="M98.51,87.22s-3.68,2,0,2.87,21.7,0,21.7,0l6,.38-9.73-4.66Z" transform="translate(-20.75 -16)"/><path class="cls-1" d="M46.71,94.67c2-.86,8.9-3.57,10.4-3.57S76,92.28,76,92.28V91.1l-8.16-3H54.53s-8.79,4-8.79,4.35A14.49,14.49,0,0,0,46.71,94.67Z" transform="translate(-20.75 -16)"/></svg>